<svg width="44" height="48" viewBox="0 0 44 48" fill="none" xmlns="http://www.w3.org/2000/svg">
<path d="M43.3125 4.625V43.375C43.3125 44.4027 42.9042 45.3883 42.1775 46.115C41.4508 46.8417 40.4652 47.25 39.4375 47.25H29.75C28.7223 47.25 27.7367 46.8417 27.01 46.115C26.2833 45.3883 25.875 44.4027 25.875 43.375V4.625C25.875 3.59729 26.2833 2.61166 27.01 1.88496C27.7367 1.15826 28.7223 0.75 29.75 0.75H39.4375C40.4652 0.75 41.4508 1.15826 42.1775 1.88496C42.9042 2.61166 43.3125 3.59729 43.3125 4.625ZM14.25 0.75H4.5625C3.53479 0.75 2.54916 1.15826 1.82246 1.88496C1.09576 2.61166 0.6875 3.59729 0.6875 4.625V43.375C0.6875 44.4027 1.09576 45.3883 1.82246 46.115C2.54916 46.8417 3.53479 47.25 4.5625 47.25H14.25C15.2777 47.25 16.2633 46.8417 16.99 46.115C17.7167 45.3883 18.125 44.4027 18.125 43.375V4.625C18.125 3.59729 17.7167 2.61166 16.99 1.88496C16.2633 1.15826 15.2777 0.75 14.25 0.75Z" fill="black"/>
</svg>
