<svg width="48" height="53" viewBox="0 0 48 53" fill="none" xmlns="http://www.w3.org/2000/svg">
<path fill-rule="evenodd" clip-rule="evenodd" d="M1.221 3.99718C1.30427 3.29708 1.54971 2.62606 1.93782 2.03746C2.32593 1.44886 2.84599 0.958918 3.45667 0.606579C4.06736 0.25424 4.75181 0.0492205 5.45563 0.0078213C6.15945 -0.0335779 6.86322 0.089784 7.511 0.3681C10.7855 1.76793 18.1238 5.09485 27.4355 10.4691C36.7502 15.8464 43.3023 20.5424 46.1483 22.6729C48.5779 24.4952 48.5841 28.1089 46.1513 29.9373C43.3332 32.0555 36.8612 36.6898 27.4355 42.1349C18.0005 47.5801 10.7485 50.8669 7.50483 52.2483C4.71133 53.4415 1.58483 51.6316 1.221 48.6192C0.795501 45.098 0 37.1029 0 26.3051C0 15.5134 0.792418 7.52143 1.221 3.99718Z" fill="black"/>
</svg>
