<?xml version="1.0" encoding="utf-8"?>
<!-- Generator: Adobe Illustrator 27.5.0, SVG Export Plug-In . SVG Version: 6.00 Build 0)  -->
<svg version="1.1" xmlns="http://www.w3.org/2000/svg" xmlns:xlink="http://www.w3.org/1999/xlink" x="0px" y="0px"
	 viewBox="0 0 500 500" style="enable-background:new 0 0 500 500;" xml:space="preserve">
<g id="Background_Complete">
	<g>
		<rect y="382.398" style="fill:#EBEBEB;" width="500" height="0.25"/>
		<rect x="416.779" y="398.494" style="fill:#EBEBEB;" width="33.122" height="0.25"/>
		<rect x="322.527" y="401.208" style="fill:#EBEBEB;" width="8.693" height="0.25"/>
		<rect x="396.586" y="389.208" style="fill:#EBEBEB;" width="19.192" height="0.25"/>
		<rect x="52.459" y="390.888" style="fill:#EBEBEB;" width="43.193" height="0.25"/>
		<rect x="104.556" y="390.888" style="fill:#EBEBEB;" width="6.333" height="0.25"/>
		<rect x="131.471" y="395.111" style="fill:#EBEBEB;" width="93.676" height="0.25"/>
		<path style="fill:#EBEBEB;" d="M237.014,337.8H43.915c-3.147,0-5.708-2.561-5.708-5.708V60.66c0-3.147,2.561-5.708,5.708-5.708
			h193.099c3.146,0,5.707,2.561,5.707,5.708v271.432C242.721,335.239,240.16,337.8,237.014,337.8z M43.915,55.203
			c-3.01,0-5.458,2.448-5.458,5.458v271.432c0,3.01,2.448,5.458,5.458,5.458h193.099c3.009,0,5.457-2.448,5.457-5.458V60.66
			c0-3.009-2.448-5.458-5.457-5.458H43.915z"/>
		<path style="fill:#EBEBEB;" d="M453.31,337.8H260.212c-3.147,0-5.707-2.561-5.707-5.708V60.66c0-3.147,2.561-5.708,5.707-5.708
			H453.31c3.148,0,5.708,2.561,5.708,5.708v271.432C459.019,335.239,456.458,337.8,453.31,337.8z M260.212,55.203
			c-3.009,0-5.457,2.448-5.457,5.458v271.432c0,3.01,2.448,5.458,5.457,5.458H453.31c3.01,0,5.458-2.448,5.458-5.458V60.66
			c0-3.009-2.448-5.458-5.458-5.458H260.212z"/>
	</g>
	<g>
		<g>
			<g>
				
					<rect x="324.809" y="82.2" transform="matrix(0.9885 -0.151 0.151 0.9885 -26.9183 53.8025)" style="fill:#F5F5F5;" width="32.05" height="243.92"/>
			</g>
			<g>
				<g>
					
						<rect x="307.591" y="91.037" transform="matrix(0.9885 -0.151 0.151 0.9885 -10.3577 48.1906)" style="fill:#EBEBEB;" width="9.14" height="2.53"/>
				</g>
				<g>
					
						<rect x="308.697" y="98.283" transform="matrix(0.9885 -0.151 0.151 0.9885 -11.4388 48.4389)" style="fill:#EBEBEB;" width="9.14" height="2.53"/>
				</g>
				<g>
					
						<rect x="309.805" y="105.529" transform="matrix(0.9885 -0.151 0.151 0.9885 -12.5209 48.6896)" style="fill:#EBEBEB;" width="9.14" height="2.54"/>
				</g>
				<g>
					
						<rect x="310.912" y="112.784" transform="matrix(0.9885 -0.151 0.151 0.9885 -13.6029 48.9395)" style="fill:#EBEBEB;" width="9.14" height="2.53"/>
				</g>
				<g>
					
						<rect x="312.019" y="120.03" transform="matrix(0.9885 -0.151 0.151 0.9885 -14.6846 49.1917)" style="fill:#EBEBEB;" width="9.14" height="2.53"/>
				</g>
				<g>
					
						<rect x="313.127" y="127.276" transform="matrix(0.9885 -0.151 0.151 0.9885 -15.7664 49.4404)" style="fill:#EBEBEB;" width="9.14" height="2.54"/>
				</g>
				<g>
					
						<rect x="314.234" y="134.532" transform="matrix(0.9885 -0.151 0.151 0.9885 -16.8488 49.6924)" style="fill:#EBEBEB;" width="9.14" height="2.53"/>
				</g>
				<g>
					
						<rect x="315.341" y="141.778" transform="matrix(0.9885 -0.151 0.151 0.9885 -17.9302 49.9425)" style="fill:#EBEBEB;" width="9.14" height="2.53"/>
				</g>
				<g>
					
						<rect x="316.448" y="149.024" transform="matrix(0.9885 -0.151 0.151 0.9885 -19.0124 50.1933)" style="fill:#EBEBEB;" width="9.14" height="2.54"/>
				</g>
				<g>
					
						<rect x="317.556" y="156.28" transform="matrix(0.9885 -0.151 0.151 0.9885 -20.0944 50.4432)" style="fill:#EBEBEB;" width="9.14" height="2.53"/>
				</g>
				<g>
					
						<rect x="318.663" y="163.526" transform="matrix(0.9885 -0.151 0.151 0.9885 -21.1758 50.6934)" style="fill:#EBEBEB;" width="9.14" height="2.53"/>
				</g>
				<g>
					
						<rect x="319.77" y="170.772" transform="matrix(0.9885 -0.151 0.151 0.9885 -22.258 50.9442)" style="fill:#EBEBEB;" width="9.14" height="2.54"/>
				</g>
				<g>
					
						<rect x="320.878" y="178.028" transform="matrix(0.9885 -0.151 0.151 0.9885 -23.34 51.1941)" style="fill:#EBEBEB;" width="9.14" height="2.53"/>
				</g>
				<g>
					
						<rect x="321.984" y="185.274" transform="matrix(0.9885 -0.151 0.151 0.9885 -24.4213 51.4443)" style="fill:#EBEBEB;" width="9.14" height="2.53"/>
				</g>
				<g>
					
						<rect x="323.092" y="192.52" transform="matrix(0.9885 -0.151 0.151 0.9885 -25.5028 51.693)" style="fill:#EBEBEB;" width="9.14" height="2.54"/>
				</g>
				<g>
					
						<rect x="324.199" y="199.776" transform="matrix(0.9885 -0.151 0.151 0.9885 -26.5856 51.945)" style="fill:#EBEBEB;" width="9.14" height="2.53"/>
				</g>
				<g>
					
						<rect x="325.306" y="207.022" transform="matrix(0.9885 -0.151 0.151 0.9885 -27.666 52.193)" style="fill:#EBEBEB;" width="9.14" height="2.53"/>
				</g>
				<g>
					
						<rect x="326.414" y="214.267" transform="matrix(0.9885 -0.151 0.151 0.9885 -28.7482 52.4438)" style="fill:#EBEBEB;" width="9.14" height="2.54"/>
				</g>
				<g>
					
						<rect x="327.521" y="221.523" transform="matrix(0.9885 -0.151 0.151 0.9885 -29.8301 52.6937)" style="fill:#EBEBEB;" width="9.14" height="2.53"/>
				</g>
				<g>
					
						<rect x="328.628" y="228.769" transform="matrix(0.9885 -0.151 0.151 0.9885 -30.9114 52.9438)" style="fill:#EBEBEB;" width="9.14" height="2.53"/>
				</g>
				<g>
					
						<rect x="329.735" y="236.015" transform="matrix(0.9885 -0.151 0.151 0.9885 -31.9937 53.1946)" style="fill:#EBEBEB;" width="9.14" height="2.54"/>
				</g>
				<g>
					
						<rect x="330.843" y="243.271" transform="matrix(0.9885 -0.151 0.151 0.9885 -33.0755 53.4445)" style="fill:#EBEBEB;" width="9.14" height="2.53"/>
				</g>
				<g>
					
						<rect x="331.949" y="250.517" transform="matrix(0.9885 -0.151 0.151 0.9885 -34.1658 53.7114)" style="fill:#EBEBEB;" width="9.14" height="2.53"/>
				</g>
				<g>
					
						<rect x="333.057" y="257.763" transform="matrix(0.9885 -0.151 0.151 0.9885 -35.2392 53.9455)" style="fill:#EBEBEB;" width="9.14" height="2.54"/>
				</g>
			</g>
		</g>
		<g>
			<g>
				<rect x="371.692" y="119.894" style="fill:#F0F0F0;" width="12.268" height="162.385"/>
			</g>
			<g>
				<polygon style="fill:#F5F5F5;" points="382.961,101.488 372.692,101.488 371.692,119.894 383.961,119.894 				"/>
			</g>
		</g>
		<g>
			<g>
				
					<rect x="425.419" y="136.921" transform="matrix(0.9919 0.1267 -0.1267 0.9919 31.2123 -52.8055)" style="fill:#E6E6E6;" width="10.786" height="164.193"/>
			</g>
			<g>
				<path style="fill:#EBEBEB;" d="M451.985,125l-3.15-3.696l0.676-21.937l-6.736-0.824l-8.484,38.004l0.569,8.19l10.699,1.366
					l1.524-4.302l-2.32,28.849l1.371,0.175C450.525,153.09,451.985,125,451.985,125z"/>
			</g>
		</g>
		<g>
			<g>
				<polygon style="fill:#E0E0E0;" points="428.171,176.174 394.622,177.937 395.855,144.231 423.412,142.783 				"/>
			</g>
			<g>
				<polygon style="fill:#EBEBEB;" points="428.171,176.174 394.622,177.937 402.414,269.052 429.971,267.604 				"/>
			</g>
		</g>
		<g>
			<polygon style="fill:#E6E6E6;" points="440.84,222.517 316.389,222.517 326.389,381.322 430.84,381.322 			"/>
		</g>
		<g>
			<rect x="314.611" y="216.52" style="fill:#E0E0E0;" width="128.007" height="16.19"/>
		</g>
		<g>
			<g>
				<rect x="50.791" y="69.8" style="fill:#F0F0F0;" width="230.521" height="177.354"/>
			</g>
			<g>
				
					<rect x="79.296" y="92.302" transform="matrix(0.9967 -0.0807 0.0807 0.9967 -9.1336 8.8075)" style="fill:#FAFAFA;" width="50.258" height="50.258"/>
			</g>
			<g>
				
					<rect x="170.823" y="96.951" transform="matrix(0.999 0.0444 -0.0444 0.999 5.6184 -8.5869)" style="fill:#FAFAFA;" width="50.258" height="50.258"/>
			</g>
			<g>
				
					<rect x="115.966" y="156.104" transform="matrix(0.999 0.0444 -0.0444 0.999 8.1927 -6.0908)" style="fill:#FAFAFA;" width="50.258" height="50.258"/>
			</g>
			<g>
				<path style="fill:#E6E6E6;" d="M106.277,95.006c0,1.023-0.829,1.852-1.852,1.852c-1.023,0-1.852-0.829-1.852-1.852
					c0-1.023,0.829-1.852,1.852-1.852C105.448,93.154,106.277,93.983,106.277,95.006z"/>
			</g>
			<g>
				<path style="fill:#E6E6E6;" d="M198.807,99.548c0,1.023-0.829,1.852-1.852,1.852s-1.852-0.829-1.852-1.852
					c0-1.023,0.829-1.852,1.852-1.852S198.807,98.525,198.807,99.548z"/>
			</g>
			<g>
				<path style="fill:#E6E6E6;" d="M145.316,160.205c0,1.023-0.829,1.852-1.852,1.852c-1.023,0-1.852-0.829-1.852-1.852
					s0.829-1.852,1.852-1.852C144.487,158.353,145.316,159.182,145.316,160.205z"/>
			</g>
			<g>
				<path style="fill:#F0F0F0;" d="M98.583,110.854c-1.627,0-3.056-0.57-3.977-1.622c-0.132-0.152-0.255-0.315-0.377-0.479
					c-0.185-0.248-0.359-0.482-0.522-0.571c-0.288-0.157-0.874-0.024-1.261,0.063l-7.192,1.621l-0.439-1.951l7.192-1.621
					c0.638-0.145,1.706-0.385,2.654,0.129c0.551,0.298,0.896,0.762,1.174,1.135c0.09,0.122,0.18,0.244,0.278,0.356
					c0.831,0.95,2.352,1.053,3.5,0.839c0.938-0.178,1.846-0.541,2.807-0.926c0.527-0.211,1.055-0.422,1.591-0.604
					c3.283-1.119,6.712-1.166,10.029-1.212l6.889-0.095l0.027,2l-6.889,0.095c-3.161,0.044-6.429,0.088-9.411,1.104
					c-0.503,0.171-0.998,0.37-1.493,0.568c-1.007,0.403-2.049,0.82-3.178,1.034C99.506,110.809,99.037,110.854,98.583,110.854z"/>
			</g>
			<g>
				<path style="fill:#F0F0F0;" d="M88.968,120.609l-0.095-1.998l13.777-0.651c0.859-0.041,1.748-0.083,2.486-0.376
					c0.331-0.132,0.662-0.325,1.012-0.529c0.223-0.13,0.446-0.261,0.675-0.38c1.967-1.028,4.319-1.264,6.451-0.646l-0.557,1.921
					c-1.643-0.477-3.454-0.295-4.968,0.497c-0.201,0.105-0.397,0.22-0.593,0.335c-0.399,0.232-0.811,0.473-1.282,0.661
					c-1.049,0.417-2.155,0.469-3.13,0.516L88.968,120.609z"/>
			</g>
			<g>
				<path style="fill:#F0F0F0;" d="M192.012,109.901c-4.211,0-8.415-0.353-12.544-0.699l0.167-1.993
					c7.595,0.638,15.447,1.295,22.979-0.313l0.755-0.167c1.33-0.298,2.701-0.609,4.144-0.567c2.107,0.055,3.947,0.943,4.92,2.377
					l-1.654,1.124c-0.613-0.902-1.854-1.464-3.318-1.502c-1.205-0.026-2.389,0.236-3.655,0.52l-0.774,0.171
					C199.384,109.631,195.695,109.901,192.012,109.901z"/>
			</g>
			<g>
				<path style="fill:#F0F0F0;" d="M211.511,120.475c-4.796-2.359-10.368-3.373-15.684-2.856l-0.193-1.99
					c5.768-0.563,11.562,0.495,16.76,3.052L211.511,120.475z"/>
			</g>
			<g>
				<path style="fill:#F0F0F0;" d="M197.366,125.138c-5.51,0-11.02-0.45-16.456-1.346l0.325-1.974
					c7.624,1.258,15.398,1.619,23.106,1.074l0.141,1.995C202.115,125.054,199.74,125.138,197.366,125.138z"/>
			</g>
			<g>
				<path style="fill:#F0F0F0;" d="M144.803,172.504c-3.683,0-7.637-0.189-11.285-1.493c-0.811-0.29-1.609-0.634-2.38-0.967
					c-1.858-0.801-3.612-1.558-5.456-1.573l0.017-2c2.247,0.018,4.273,0.892,6.231,1.737c0.743,0.32,1.511,0.652,2.262,0.92
					c4.071,1.456,8.534,1.407,12.853,1.36c1.028-0.011,2.091-0.023,3.034-0.292c0.49-0.139,0.974-0.353,1.487-0.581
					c0.336-0.148,0.672-0.297,1.014-0.428c3.574-1.37,7.594-0.807,10.823-0.354l-0.277,1.98c-3.158-0.442-6.737-0.944-9.83,0.241
					c-0.311,0.119-0.616,0.255-0.921,0.39c-0.553,0.245-1.124,0.498-1.748,0.675c-1.201,0.342-2.454,0.355-3.56,0.368
					C146.327,172.496,145.571,172.504,144.803,172.504z"/>
			</g>
			<g>
				<rect x="132.813" y="181.121" style="fill:#F0F0F0;" width="21.758" height="2"/>
			</g>
			<g>
				<path style="fill:#F0F0F0;" d="M130.068,195.159l-0.062-1.999c8.417-0.259,16.955-0.303,25.376-0.131l-0.041,2
					C146.955,194.856,138.451,194.9,130.068,195.159z"/>
			</g>
		</g>
	</g>
</g>
<g id="Background_Simple" style="display:none;">
	<g style="display:inline;">
		<path style="fill:#407BFF;" d="M97.769,114.921c10.724-30.145,53.075-38.654,80.206-23.197
			c26.466,15.079,49.796,43.385,82.928,41.539c32.678-1.821,54.813-31.098,83.694-42.741c28.978-11.682,65.825-3.935,82.57,23.979
			c17.085,28.479,5.992,66.572-12.443,91.656c-26.345,35.845-66.811,58.972-90.808,96.734
			c-8.996,14.156-15.035,29.367-17.659,45.888c-2.543,16.008-3.89,33.898-16.653,45.544c-14.968,13.658-36.853,11.779-52.186-0.215
			c-21.229-16.605-34.413-45.132-41.05-70.679c-7.112-27.376-11.087-56.354-26.138-80.302
			c-11.969-19.044-29.994-33.322-45.591-49.529c-16.536-17.184-30.732-41.717-29.32-66.302
			C95.574,122.833,96.422,118.707,97.769,114.921z"/>
		<path style="opacity:0.9;fill:#FFFFFF;" d="M97.769,114.921c10.724-30.145,53.075-38.654,80.206-23.197
			c26.466,15.079,49.796,43.385,82.928,41.539c32.678-1.821,54.813-31.098,83.694-42.741c28.978-11.682,65.825-3.935,82.57,23.979
			c17.085,28.479,5.992,66.572-12.443,91.656c-26.345,35.845-66.811,58.972-90.808,96.734
			c-8.996,14.156-15.035,29.367-17.659,45.888c-2.543,16.008-3.89,33.898-16.653,45.544c-14.968,13.658-36.853,11.779-52.186-0.215
			c-21.229-16.605-34.413-45.132-41.05-70.679c-7.112-27.376-11.087-56.354-26.138-80.302
			c-11.969-19.044-29.994-33.322-45.591-49.529c-16.536-17.184-30.732-41.717-29.32-66.302
			C95.574,122.833,96.422,118.707,97.769,114.921z"/>
	</g>
</g>
<g id="Shadow_1_">
	<ellipse id="_x3C_Path_x3E__359_" style="fill:#F5F5F5;" cx="250" cy="416.238" rx="193.889" ry="11.323"/>
</g>
<g id="Monitor">
	<g>
		<g>
			<path style="fill:#263238;" d="M207.854,417.238c-0.276-0.001-27.934-0.094-55.494-1.366c-56.481-2.608-57.558-7.54-57.964-9.396
				c-0.21-0.963-0.029-1.88,0.538-2.726c2.444-3.646,12.001-5.332,23.067-7.285c10.291-1.816,21.954-3.876,24.174-7.533
				c0.368-0.605,0.436-1.216,0.213-1.922c-1.238-3.933-12.472-6.653-25.48-9.805c-22.067-5.344-49.53-11.996-57.913-29.837
				c-13.46-28.647,0.921-76.107,1.54-78.114l1.911,0.59c-0.149,0.483-14.77,48.73-1.641,76.675
				c7.975,16.973,36.064,23.775,56.573,28.743c14.711,3.563,25.34,6.137,26.917,11.148c0.396,1.259,0.258,2.456-0.411,3.56
				c-2.691,4.432-13.788,6.391-25.537,8.464c-9.273,1.638-19.784,3.492-21.753,6.431c-0.259,0.386-0.337,0.763-0.245,1.185
				c0.271,1.24,5.117,5.47,56.097,7.824c27.517,1.271,55.137,1.363,55.413,1.364L207.854,417.238z"/>
		</g>
		<g>
			<g>
				<rect x="198.747" y="155.714" style="fill:#263238;" width="6.527" height="7.516"/>
				<rect x="198.747" y="155.714" style="opacity:0.2;fill:#FFFFFF;" width="6.527" height="7.516"/>
			</g>
			<g>
				<path style="fill:#263238;" d="M188.615,169.565l1.314-4.475c0.479-1.63,1.974-2.75,3.673-2.75h19.393
					c1.399,0,2.686,0.763,3.358,1.99l2.867,5.235h-31.451"/>
				<path style="opacity:0.4;fill:#FFFFFF;" d="M188.615,169.565l1.314-4.475c0.479-1.63,1.974-2.75,3.673-2.75h19.393
					c1.399,0,2.686,0.763,3.358,1.99l2.867,5.235h-31.451"/>
				<path style="opacity:0.2;fill:#FFFFFF;" d="M196.077,169.565h23.143l-2.867-5.235c-0.672-1.227-1.959-1.989-3.358-1.989h-14.842
					c-1.147,0-2.077,0.93-2.077,2.077V169.565z"/>
			</g>
			<g>
				<g>
					
						<ellipse transform="matrix(0.7071 -0.7071 0.7071 0.7071 -45.4554 186.5167)" style="fill:#263238;" cx="202.418" cy="148.128" rx="12.077" ry="12.077"/>
					
						<ellipse transform="matrix(0.7071 -0.7071 0.7071 0.7071 -45.4554 186.5167)" style="opacity:0.3;fill:#FFFFFF;" cx="202.418" cy="148.128" rx="12.077" ry="12.077"/>
				</g>
				<g>
					<path style="fill:#263238;" d="M214.492,150.981c0,3.649-2.958,6.607-6.607,6.607c-3.649,0-6.607-2.958-6.607-6.607
						c0-3.649,2.958-6.607,6.607-6.607C211.534,144.374,214.492,147.332,214.492,150.981z"/>
					<path style="opacity:0.2;fill:#FFFFFF;" d="M214.492,150.981c0,3.649-2.958,6.607-6.607,6.607
						c-3.649,0-6.607-2.958-6.607-6.607c0-3.649,2.958-6.607,6.607-6.607C211.534,144.374,214.492,147.332,214.492,150.981z"/>
				</g>
				<path style="fill:#263238;" d="M212.951,151.478c0,2.394-1.941,4.335-4.335,4.335s-4.335-1.941-4.335-4.335
					s1.941-4.335,4.335-4.335S212.951,149.084,212.951,151.478z"/>
				<path style="opacity:0.2;enable-background:new    ;" d="M201.278,143.481c0,0.493-0.4,0.893-0.893,0.893
					c-0.493,0-0.893-0.4-0.893-0.893c0-0.493,0.4-0.893,0.893-0.893C200.878,142.588,201.278,142.988,201.278,143.481z"/>
			</g>
		</g>
		<g>
			<path style="fill:#263238;" d="M118.721,164.302c0,0-44.282-3.049-47.725,82.004l-9.404-0.574c0,0-2.684-52.617,19.624-78.811
				c4.628-5.434,11.552-8.348,18.682-8.023C107.883,159.261,118.071,160.478,118.721,164.302z"/>
			<g>
				
					<ellipse transform="matrix(0.905 -0.4255 0.4255 0.905 -101.8363 52.332)" style="fill:#263238;" cx="66.229" cy="254.132" rx="21.475" ry="21.475"/>
				
					<ellipse transform="matrix(0.905 -0.4255 0.4255 0.905 -101.8363 52.332)" style="opacity:0.1;fill:#FFFFFF;" cx="66.229" cy="254.132" rx="21.475" ry="21.475"/>
			</g>
			<path style="fill:#263238;" d="M55.374,249.746c-2.16,5.995,0.948,12.607,6.943,14.767c5.995,2.16,12.607-0.948,14.767-6.943
				c2.16-5.995-0.948-12.607-6.943-14.767C64.146,240.643,57.535,243.751,55.374,249.746z"/>
			<path style="opacity:0.1;fill:#FFFFFF;" d="M56.961,251.042c-1.451,4.026,0.637,8.466,4.662,9.917
				c4.026,1.451,8.466-0.637,9.917-4.663c1.451-4.026-0.637-8.466-4.662-9.917C62.852,244.928,58.412,247.016,56.961,251.042z"/>
		</g>
		<g>
			<g>
				<path style="fill:#407BFF;" d="M257.09,414.029v3.85c0,0.48-0.39,0.86-0.87,0.86H147.51c-4.02,0-6.76-4.06-5.26-7.78
					l34.45-85.32l55.67,0.38l-1.9,11.07l-12.28,71.65c-0.4,2.31,1.38,4.43,3.73,4.43h34.3
					C256.7,413.169,257.09,413.549,257.09,414.029z"/>
				<path style="opacity:0.6;fill:#FFFFFF;" d="M257.09,414.029v3.85c0,0.48-0.39,0.86-0.87,0.86H147.51
					c-4.02,0-6.76-4.06-5.26-7.78l21.36-52.89l13.09-32.43l55.67,0.38l-1.9,11.07l-5.34,31.16l-6.94,40.49
					c-0.4,2.31,1.38,4.43,3.73,4.43h34.3C256.7,413.169,257.09,413.549,257.09,414.029z"/>
				<path style="opacity:0.2;enable-background:new    ;" d="M221.92,413.169h-70.731c-1.77,0-2.971-1.8-2.291-3.434l30.202-72.646
					h51.37l-12.28,71.65C217.79,411.049,219.57,413.169,221.92,413.169z"/>
				<polygon style="opacity:0.1;enable-background:new    ;" points="232.37,326.019 230.47,337.089 225.13,368.249 163.61,358.069 
					176.7,325.639 				"/>
			</g>
			<g>
				<g>
					<path style="fill:#407BFF;" d="M340.625,166.971h-5.463H88.354h-5.463c-3.642,0-6.595,2.953-6.595,6.595v174.481
						c0,3.643,2.953,6.595,6.595,6.595h5.463h246.808h5.463c3.643,0,6.596-2.953,6.596-6.595V173.567
						C347.22,169.924,344.267,166.971,340.625,166.971z"/>
					<path style="opacity:0.7;fill:#FFFFFF;" d="M340.625,166.971h-5.463H88.354h-5.463c-3.642,0-6.595,2.953-6.595,6.595v174.481
						c0,3.643,2.953,6.595,6.595,6.595h5.463h246.808h5.463c3.643,0,6.596-2.953,6.596-6.595V173.567
						C347.22,169.924,344.267,166.971,340.625,166.971z"/>
					<path style="opacity:0.2;enable-background:new    ;" d="M88.351,354.639h-5.463c-3.638,0-6.588-2.95-6.588-6.588V173.57
						c0-3.649,2.95-6.599,6.588-6.599h5.463c-3.638,0-6.588,2.95-6.588,6.599v174.481C81.763,351.689,84.713,354.639,88.351,354.639
						z"/>
				</g>
				<g>
					<rect x="87.71" y="173.43" style="fill:#407BFF;" width="253.57" height="168.25"/>
					<path style="opacity:0.1;fill:#FFFFFF;" d="M314.849,173.428c-35.06,35.126-125.109,113.298-227.143,107.518V173.428H314.849z"
						/>
					<path style="opacity:0.1;fill:#FFFFFF;" d="M341.278,237.987v103.694H188.615c5.856-20.944,17.557-49.624,40.26-70.12
						C269.716,234.687,317.111,234.797,341.278,237.987z"/>
				</g>
				<path style="opacity:0.8;fill:#FFFFFF;" d="M239.176,277.074h-49.367c-1.238,0-2.242-1.004-2.242-2.242v-0.415
					c0-1.238,1.004-2.242,2.242-2.242h49.367c1.238,0,2.242,1.004,2.242,2.242v0.415
					C241.418,276.07,240.414,277.074,239.176,277.074z"/>
				<g>
					<path style="opacity:0.4;enable-background:new    ;" d="M246.237,283.079h-63.49c-0.928,0-1.68,0.752-1.68,1.68v5.777
						c0,0.928,0.752,1.68,1.68,1.68h63.49c0.928,0,1.68-0.752,1.68-1.68v-5.777C247.917,283.831,247.165,283.079,246.237,283.079z"
						/>
				</g>
				<path style="fill:#407BFF;" d="M240.648,291.124c-0.324,0-0.588-0.264-0.588-0.588v-5.776c0-0.324,0.264-0.588,0.588-0.588
					h5.584c0.324,0,0.587,0.263,0.587,0.588v5.776c0,0.324-0.264,0.588-0.587,0.588H240.648z"/>
				<g>
					<path style="opacity:0.4;enable-background:new    ;" d="M242.992,236.414c0,7.134-2.622,13.657-6.96,18.661
						c-5.222,6.031-12.936,9.844-21.534,9.844c-8.609,0-16.323-3.813-21.546-9.844c-4.337-5.004-6.959-11.527-6.959-18.661
						c0-15.733,12.761-28.494,28.505-28.494C230.231,207.92,242.992,220.681,242.992,236.414z"/>
					<path style="opacity:0.8;fill:#FFFFFF;" d="M236.032,255.074c-5.222,6.031-12.936,9.844-21.534,9.844
						c-8.609,0-16.323-3.813-21.546-9.844c2.087-7.517,7.998-13.417,15.493-15.525c-2.994-1.967-4.971-5.354-4.971-9.21
						c0-6.086,4.927-11.024,11.024-11.024c6.085,0,11.013,4.938,11.013,11.024c0,3.857-1.977,7.244-4.971,9.21
						C228.035,241.658,233.945,247.558,236.032,255.074z"/>
				</g>
				<g>
					<rect x="305.83" y="328.941" style="opacity:0.4;enable-background:new    ;" width="5.619" height="5.619"/>
					<path style="opacity:0.4;enable-background:new    ;" d="M320.935,334.56h-2.74c-0.795,0-1.44-0.645-1.44-1.44v-2.74
						c0-0.795,0.645-1.44,1.44-1.44h2.74c0.795,0,1.439,0.645,1.439,1.44v2.74C322.374,333.915,321.729,334.56,320.935,334.56z"/>
					<path style="opacity:0.4;enable-background:new    ;" d="M330.728,334.56h-0.476c-1.42,0-2.572-1.151-2.572-2.572v-0.476
						c0-1.42,1.151-2.571,2.572-2.571h0.476c1.42,0,2.571,1.151,2.571,2.571v0.476C333.3,333.408,332.148,334.56,330.728,334.56z"/>
				</g>
			</g>
			<g style="opacity:0.1;">
				<polygon style="fill:#FFFFFF;" points="125.29,173.43 87.71,313.85 87.71,173.43 				"/>
				<polygon style="fill:#FFFFFF;" points="167.7,173.43 122.67,341.68 91.65,341.68 136.67,173.43 				"/>
				<polygon style="fill:#FFFFFF;" points="212.8,173.43 167.77,341.68 153.74,341.68 198.77,173.43 				"/>
				<polygon style="fill:#FFFFFF;" points="254.33,173.43 209.3,341.68 204.28,341.68 249.31,173.43 				"/>
			</g>
		</g>
		<g>
			<circle style="fill:#263238;" cx="103.8" cy="260.805" r="21.475"/>
			<g>
				
					<ellipse transform="matrix(0.7071 -0.7071 0.7071 0.7071 -153.8835 150.3679)" style="fill:#263238;" cx="104.568" cy="260.938" rx="18.821" ry="18.821"/>
				
					<ellipse transform="matrix(0.7071 -0.7071 0.7071 0.7071 -153.8835 150.3679)" style="opacity:0.2;fill:#FFFFFF;" cx="104.568" cy="260.938" rx="18.821" ry="18.821"/>
			</g>
			<g>
				<path style="fill:#263238;" d="M100.517,161.813c0,0,22.802,25.085,5.517,89.67l9.042,2.648c0,0,25.529-60.913,2.428-91.541
					C117.504,162.591,103.681,156.213,100.517,161.813z"/>
				<path style="opacity:0.1;fill:#FFFFFF;" d="M100.517,161.813c0,0,22.802,25.085,5.517,89.67l9.042,2.648
					c0,0,25.529-60.913,2.428-91.541C117.504,162.591,103.681,156.213,100.517,161.813z"/>
			</g>
			<g>
				
					<ellipse transform="matrix(0.2298 -0.9732 0.9732 0.2298 -172.1934 305.5011)" style="fill:#263238;" cx="106.912" cy="261.538" rx="11.538" ry="11.538"/>
				
					<ellipse transform="matrix(0.2298 -0.9732 0.9732 0.2298 -172.1934 305.5011)" style="opacity:0.1;fill:#FFFFFF;" cx="106.912" cy="261.538" rx="11.538" ry="11.538"/>
			</g>
			<g>
				
					<ellipse transform="matrix(0.9239 -0.3827 0.3827 0.9239 -91.8902 61.1144)" style="fill:#263238;" cx="107.676" cy="261.538" rx="9.588" ry="9.588"/>
				
					<ellipse transform="matrix(0.9239 -0.3827 0.3827 0.9239 -91.8902 61.1144)" style="opacity:0.2;fill:#FFFFFF;" cx="107.676" cy="261.538" rx="9.588" ry="9.588"/>
			</g>
		</g>
	</g>
</g>
<g id="Blink">
	<g>
		<polygon style="fill:#407BFF;" points="247.191,230.293 245.808,221.9 244.426,230.293 236.032,231.676 244.426,233.058 
			245.808,241.452 247.191,233.058 255.584,231.676 		"/>
		<polygon style="fill:#407BFF;" points="291.531,142.994 289.893,133.051 288.255,142.994 278.312,144.632 288.255,146.27 
			289.893,156.213 291.531,146.27 301.475,144.632 		"/>
		<polygon style="fill:#407BFF;" points="331.477,253.145 330.49,247.154 329.503,253.145 323.513,254.132 329.503,255.118 
			330.49,261.109 331.477,255.118 337.468,254.132 		"/>
		<polygon style="opacity:0.6;fill:#FFFFFF;" points="247.191,230.293 245.808,221.9 244.426,230.293 236.032,231.676 
			244.426,233.058 245.808,241.452 247.191,233.058 255.584,231.676 		"/>
		<polygon style="fill:#407BFF;" points="138.271,323.581 136.889,315.187 135.506,323.581 127.113,324.963 135.506,326.346 
			136.889,334.739 138.271,326.346 146.665,324.963 		"/>
		<polygon style="opacity:0.6;fill:#FFFFFF;" points="138.271,323.581 136.889,315.187 135.506,323.581 127.113,324.963 
			135.506,326.346 136.889,334.739 138.271,326.346 146.665,324.963 		"/>
		<polygon style="opacity:0.6;fill:#FFFFFF;" points="291.531,142.994 289.893,133.051 288.255,142.994 278.312,144.632 
			288.255,146.27 289.893,156.213 291.531,146.27 301.475,144.632 		"/>
		<polygon style="fill:#407BFF;" points="258.665,373.492 257.027,363.548 255.389,373.492 245.445,375.129 255.389,376.767 
			257.027,386.711 258.665,376.767 268.608,375.129 		"/>
		<polygon style="opacity:0.6;fill:#FFFFFF;" points="258.665,373.492 257.027,363.548 255.389,373.492 245.445,375.129 
			255.389,376.767 257.027,386.711 258.665,376.767 268.608,375.129 		"/>
		<polygon style="opacity:0.6;fill:#FFFFFF;" points="331.477,253.145 330.49,247.154 329.503,253.145 323.513,254.132 
			329.503,255.118 330.49,261.109 331.477,255.118 337.468,254.132 		"/>
		<polygon style="fill:#407BFF;" points="77.287,155.464 76.3,149.473 75.314,155.464 69.323,156.45 75.314,157.437 76.3,163.428 
			77.287,157.437 83.278,156.45 		"/>
		<polygon style="opacity:0.6;fill:#FFFFFF;" points="77.287,155.464 76.3,149.473 75.314,155.464 69.323,156.45 75.314,157.437 
			76.3,163.428 77.287,157.437 83.278,156.45 		"/>
	</g>
</g>
<g id="Character">
	<g id="_x3C_Group_x3E__63_">
		<g>
			<path style="fill:#407BFF;" d="M448.165,220.68c0,0-0.495,5.353,0.495,9.902h-1.286c0,0-1.78-5.069-1.78-9.902H448.165z"/>
			<path style="fill:#407BFF;" d="M450.74,222.87l-6.73-0.47c0,0,0.1,0.99,0.24,2.63c0.04,0.52,0.09,1.1,0.14,1.74
				c0.58,7.56,1.43,22.65-0.77,26.16c-2.97,4.75-16.22-5.73-16.62-11.47c0,0,3.21-12.45,9.22-19.06c0.58-0.63,1.18-1.21,1.8-1.72
				c0.18-0.16,0.36-0.3,0.55-0.44l-0.3-10.03l2.18-0.99c0,0,5.92,3.53,11.46,11.02L450.74,222.87z"/>
			<path style="opacity:0.7;fill:#FFFFFF;" d="M443.62,252.93c-0.22,0.36-0.5,0.63-0.83,0.81c-4.05,2.4-15.42-6.97-15.79-12.28
				c0,0,0.06-0.23,0.18-0.65c0.83-2.94,4.57-15.02,10.84-20.13c0.77,0.09,1.65,0.31,2.63,0.7c1.18,0.47,2.42,1.78,3.6,3.65
				C444.81,231.71,446,249.12,443.62,252.93z"/>
			<path style="opacity:0.2;enable-background:new    ;" d="M442.79,253.74c-4.05,2.4-15.42-6.97-15.79-12.28
				c0,0,0.06-0.23,0.18-0.65C431.94,238.12,444.71,247.37,442.79,253.74z"/>
			<path style="opacity:0.2;enable-background:new    ;" d="M444.25,225.03c0.04,0.52,0.09,1.1,0.14,1.74l-8.17-4.37
				c0.58-0.63,1.18-1.21,1.8-1.72c0.18-0.16,0.36-0.3,0.55-0.44l-0.3-10.03l2.18-0.99c0,0-0.1,4.05,0.99,4.94
				c1.09,0.89,8.41,6.63,9.3,8.71l-6.73-0.47C444.01,222.4,444.11,223.39,444.25,225.03z"/>
		</g>
		<polygon style="fill:#E4897B;" points="354.43,411.293 346.32,412.142 345.91,407.443 344.801,394.652 352.91,393.793 
			354.14,407.922 		"/>
		<polygon style="fill:#E4897B;" points="424.91,410.263 417.05,410.263 416.661,408.49 416.611,408.271 414.165,396.922 
			414.114,396.693 413.17,392.342 421.039,392.342 		"/>
		<polygon style="opacity:0.2;enable-background:new    ;" points="352.91,393.793 354.14,407.922 345.91,407.443 344.801,394.652 
					"/>
		<polygon style="opacity:0.2;enable-background:new    ;" points="424.681,409.267 424.67,409.267 416.621,408.271 
			416.611,408.271 414.227,397.32 414.237,397.32 422.23,397.947 424.608,408.923 		"/>
		<path style="fill:#263238;" d="M415.961,409.789h9.55c0.322,0.002,0.6,0.226,0.67,0.54l1.55,7
			c0.133,0.627-0.268,1.242-0.895,1.375c-0.084,0.018-0.169,0.026-0.255,0.025c-3.09-0.05-5.34-0.24-9.22-0.24
			c-2.39,0-9.6,0.25-12.9,0.25s-3.73-3.26-2.38-3.56c6.06-1.32,10.62-3.15,12.56-4.89C415,409.959,415.473,409.78,415.961,409.789z"
			/>
		<path style="fill:#263238;" d="M345.461,409.539h9.55c0.322,0.002,0.6,0.226,0.67,0.54l1.55,7
			c0.133,0.627-0.268,1.242-0.895,1.375c-0.084,0.018-0.169,0.026-0.255,0.025c-3.09-0.05-5.34-0.24-9.22-0.24
			c-2.39,0-9.6,0.25-12.9,0.25s-3.73-3.26-2.38-3.56c6.06-1.32,10.62-3.15,12.56-4.89C344.5,409.709,344.973,409.53,345.461,409.539
			z"/>
		<g>
			<path style="fill:#407BFF;" d="M344.06,404.263l11.6,0.375c-4.22-77.56-6.19-81.516,31.455-118.15
				c0.88,11.08,1.87,22.578,2.84,32.158c0.61,5.93,0.79,11.109,1.78,14.904c6.699,25.688,22.824,71.156,22.824,71.156l11.32,0.505
				c0,0-14.169-62.308-15.626-82.615c-1.912-26.643,4.306-55.481,0.772-76.332l-39.541,6.705
				C335.616,305.451,329.054,316.792,344.06,404.263z"/>
			<path style="opacity:0.3;fill:#FFFFFF;" d="M344.06,404.263l11.6,0.375c-4.22-77.56-6.19-81.516,31.455-118.15
				c0.88,11.08,1.87,22.578,2.84,32.158c0.61,5.93,0.79,11.109,1.78,14.904c6.699,25.688,22.824,71.156,22.824,71.156l11.32,0.505
				c0,0-14.169-62.308-15.626-82.615c-1.912-26.643,4.306-55.481,0.772-76.332l-39.541,6.705
				C335.616,305.451,329.054,316.792,344.06,404.263z"/>
		</g>
		<path style="fill:#FFFFFF;" d="M270.275,181.794c-3.165,4.547-8.176,20.804-8.176,26.126c0,5.322-0.109,3.492,2.848,5.058
			c2.957,1.566,12.713,6.918,17.46,10.712c4.747,3.794,6.066,1.31,7.912,5.189c1.846,3.879,13.088-28.091,15.511-31.622
			c2.423-3.531-0.478-1.906-2.852-4.038c-2.374-2.131-12.851-8.865-18.557-11.432c-5.707-2.567-8.344,1.512-9.926,0
			C272.912,180.275,270.275,181.794,270.275,181.794z"/>
		<path style="fill:#E4897B;" d="M322.93,209.747c0,0-8.358,20.166-11.481,20.903c-2.809,0.663-20.929-27.76-20.929-27.76
			s-2.374-8.83-2.637-11.404c-0.264-2.574-11.604,2.965-11.868,4.547s3.318,11.868,7.857,12.659c0,0,15.517,35.077,25.325,37.451
			c9.808,2.374,30.251-31.385,30.251-31.385L322.93,209.747z"/>
		<path style="fill:#E4897B;" d="M377.426,179.126c0,0,27.13,2.472,32.351,4.897c5.221,2.425,27.793,33.422,27.793,33.422
			s9.399,3.207,8.997,6.585c-0.402,3.378-0.737,9.536-3.424,8.581c-2.687-0.956-9.693-6.765-9.693-6.765l-0.292-2.953
			c0,0-26.501-28.212-27.569-28.973c-1.068-0.76-27.698-1.636-27.698-1.636L377.426,179.126z"/>
		<path style="fill:#263238;" d="M356.495,176.382c17.033-2.954,27.318,0,36.931,2.321l-2.591,16.869l-20.047,3.365L356.495,176.382
			z"/>
		<g>
			<path style="fill:#E4897B;" d="M324.577,181.87c0.317,0.234,0.638,0.454,0.966,0.647c1.962,1.185,4.165,1.68,6.29,1.553
				c0.558-0.03,1.114-0.104,1.659-0.219c2.874-0.611,5.435-2.378,6.835-5.095c0.581-1.101,0.97-2.381,1.095-3.798
				c0.535-5.573-2.451-9.063-7.026-15.366c-0.965-1.373-2.23-2.505-3.709-3.286c-5.183-2.781-11.639-0.823-14.412,4.354
				C312.337,167.894,318.844,177.515,324.577,181.87z"/>
			<path style="opacity:0.2;enable-background:new    ;" d="M331.834,184.07c0.558-0.03,1.114-0.104,1.659-0.219
				c2.874-0.611,5.435-2.378,6.835-5.095c-1.374-0.818-2.745-1.165-2.745-1.165S333.531,179.976,331.834,184.07z"/>
			<path style="fill:#E4897B;" d="M350.331,181.984c-0.765,5.118-8.847,10.056-8.847,10.056s-5.55,2.463-5.755,0.267
				c2.312-2.624,2.587-4.927,1.818-6.959c-0.449-1.182-1.257-2.266-2.221-3.273c-0.501-0.534-1.054-1.037-1.616-1.521l3.551-13.991
				C339.67,171.918,344.827,181.173,350.331,181.984z"/>
			<path style="fill:#263238;" d="M316.527,166.87c0.397-0.094,0.846,0.124,1.271,1.065c1.142,2.526,5.029,5.576,7.939,6.163
				c2.91,0.587,8.26,5.323,8.26,5.323s3.521-4.698,8.097-5.85c0,0,2.49-9.874-3.141-16.967L316.527,166.87z"/>
			<path style="fill:#E4897B;" d="M327.149,171.348c0.71,1.604,0.775,3.155,0.181,4.312c-0.802,1.522-3.018,0.452-4.32-1.503
				c-1.142-1.742-2.156-4.679-0.6-5.453C323.966,167.931,326.254,169.38,327.149,171.348z"/>
			<path style="fill:#263238;" d="M339.446,159.473c0,0,2.348-4.846-5.736-9.297c-8.084-4.451-17.677,2.67-20.545,7.517
				c0,0-4.154,1.286-4.846,6.527c-0.692,5.242,6.531,6.923,6.531,6.923s-2.575-1.612-3.069-3.13c0,0,1.041,2.414,5.835,1.553
				c0,0-1.088-0.233-1.582-1.553c0,0,3.633,2.777,8.641-1.448C329.681,162.341,339.446,159.473,339.446,159.473z"/>
		</g>
		<path style="opacity:0.2;enable-background:new    ;" d="M387.116,286.443c0.88,11.08,1.87,22.6,2.84,32.18
			c1.42-13.83,3.16-23.69,3.16-23.69s1.63-1.34,6.11-8.49c4.48-7.16,0-20.5,0-20.5C399.366,278.342,387.116,286.443,387.116,286.443
			z"/>
		<polygon style="fill:#407BFF;" points="342.763,403.013 343.325,406.263 356.95,406.263 356.95,403.263 		"/>
		<polygon style="fill:#407BFF;" points="413.218,404.263 414.525,407.263 426.935,407.263 426.7,404.263 		"/>
		<path style="fill:#263238;" d="M325.964,197.352c0,0,14.363-20.97,37.146-21.789c0,0,37.582,31.552,50.637,75.429l-50.369,13.927
			C363.379,264.918,346.358,224.212,325.964,197.352z"/>
		<path style="fill:#263238;" d="M325.964,197.352c-6.107,10.615-10.892,24.857-10.892,24.857l15.418,10.501l12.158-13.394
			c0,0,0.161-10.029-6.567-16.623C329.352,196.099,325.964,197.352,325.964,197.352z"/>
		<path style="opacity:0.8;fill:#FFFFFF;" d="M413.75,250.99l-50.37,13.93c0,0-9.29-22.23-22.38-44.68c0,0,0,0,0-0.01
			c-0.03-0.56-1.21-23.48-3.08-33.19c0,0,6.6-5.82,13.52-7.15c0,0,16.416,0.002,32.45,17.37
			C394.83,210.6,407.29,229.29,413.75,250.99z"/>
		<polygon style="opacity:0.7;fill:#FFFFFF;" points="342.763,403.013 343.325,406.263 356.95,406.263 356.95,403.263 		"/>
		<polygon style="opacity:0.7;fill:#FFFFFF;" points="413.218,404.263 414.525,407.263 426.935,407.263 426.7,404.263 		"/>
	</g>
</g>
</svg>
